<svg id="Layer_1" data-name="Layer 1" xmlns="http://www.w3.org/2000/svg" xmlns:xlink="http://www.w3.org/1999/xlink" viewBox="0 0 3000 3000"><defs><style>.cls-1{fill:#fff;}.cls-2{fill:url(#linear-gradient);}.cls-3{fill:url(#linear-gradient-2);}.cls-4{fill:url(#linear-gradient-3);}.cls-5{fill:url(#linear-gradient-4);}.cls-6{fill:url(#linear-gradient-5);}</style><linearGradient id="linear-gradient" x1="881.32" y1="1254.27" x2="593.49" y2="1729.49" gradientUnits="userSpaceOnUse"><stop offset="0" stop-color="#00ffd8"/><stop offset="1" stop-color="#1c73d2"/></linearGradient><linearGradient id="linear-gradient-2" x1="708.99" y1="1148.03" x2="419.57" y2="1625.89" xlink:href="#linear-gradient"/><linearGradient id="linear-gradient-3" x1="1055.29" y1="1357.78" x2="765.87" y2="1835.64" xlink:href="#linear-gradient"/><linearGradient id="linear-gradient-4" x1="818.81" y1="1214.54" x2="529.39" y2="1692.4" xlink:href="#linear-gradient"/><linearGradient id="linear-gradient-5" x1="945.48" y1="1291.26" x2="656.05" y2="1769.12" xlink:href="#linear-gradient"/></defs><path class="cls-1" d="M1152.23,1471.73V1295.67h117.29v24.55H1180v52.57h74.89v23.06H1180v75.88Z"/><path class="cls-1" d="M1333.49,1295.67h26.29l68.43,176.06H1399l-17.2-47.86h-70.4l-17.29,47.86h-29.5Zm40.87,107.62-27.73-77.12-27.85,77.12Z"/><path class="cls-1" d="M1432.18,1382.21a91.68,91.68,0,0,1,22.44-59.88,81.26,81.26,0,0,1,26.9-20.34q15.87-7.56,36-7.56,23.8,0,41.16,10.79t25.79,27.65l-21.82,14.63a47.05,47.05,0,0,0-12.52-16.87,45.06,45.06,0,0,0-16.37-8.68,63.48,63.48,0,0,0-17.23-2.47q-13.89,0-24.3,5.57a53.82,53.82,0,0,0-17.48,14.76,65.86,65.86,0,0,0-10.67,20.58,75.45,75.45,0,0,0-3.59,22.81,72,72,0,0,0,4.21,24.43,67.92,67.92,0,0,0,11.78,20.83,55.66,55.66,0,0,0,18,14.25,50.15,50.15,0,0,0,22.81,5.21,57.16,57.16,0,0,0,17.61-3,52.84,52.84,0,0,0,17-9.3,42.77,42.77,0,0,0,12.28-16.74l23.06,13.14a55.23,55.23,0,0,1-17,22.32,82.34,82.34,0,0,1-25.79,13.88,89,89,0,0,1-28.14,4.72,73.87,73.87,0,0,1-34-7.82,85.75,85.75,0,0,1-26.53-20.82,98.7,98.7,0,0,1-17.36-29.26A91.35,91.35,0,0,1,1432.18,1382.21Z"/><path class="cls-1" d="M1742.13,1320.22h-58.52v151.51h-28V1320.22h-58.76v-24.55h145.3Z"/><path class="cls-1" d="M1765.69,1471.73V1295.67h27.77v176.06Z"/><path class="cls-1" d="M1269.76,1569.69a38.08,38.08,0,0,0-7.19-5.83,69.59,69.59,0,0,0-11.16-5.83,85.45,85.45,0,0,0-13.88-4.46,67.32,67.32,0,0,0-15.37-1.74q-17.37,0-25.79,6.43t-8.43,17.79c0,5.61,1.56,10,4.71,13.23s7.93,5.89,14.38,8,14.54,4.45,24.3,6.92a178.36,178.36,0,0,1,31,10q13.14,5.82,20.08,15.45t6.94,25.46q0,13.35-5,23a41.78,41.78,0,0,1-13.88,15.7,62.83,62.83,0,0,1-20.58,8.9,105.77,105.77,0,0,1-25,2.84,127.15,127.15,0,0,1-26.16-2.73,118.85,118.85,0,0,1-24.79-8.06,107.21,107.21,0,0,1-21.7-13l12.65-23.8a54.16,54.16,0,0,0,9.29,7.07,101.31,101.31,0,0,0,14.14,7.31,112.08,112.08,0,0,0,17.6,5.83,81.06,81.06,0,0,0,19.47,2.35q16.61,0,25.42-5.79t8.8-16.64q0-8.89-5.71-14.22t-16.61-9q-10.92-3.7-26-7.42a173.16,173.16,0,0,1-29-10.26q-11.65-5.57-17.48-14.34t-5.83-22.38q0-17.31,8.44-29.3a51.54,51.54,0,0,1,22.93-18.06,84,84,0,0,1,32.61-6.06,94.63,94.63,0,0,1,22.56,2.61,100.87,100.87,0,0,1,20,7.07,103.75,103.75,0,0,1,17,10.16Z"/><path class="cls-1" d="M1390.27,1705.57q-19.1,0-34.46-7.44a82.54,82.54,0,0,1-26.54-20.21,94.31,94.31,0,0,1-17.23-28.76,91.81,91.81,0,0,1-6.07-32.86,89,89,0,0,1,6.44-33.6,94.34,94.34,0,0,1,17.86-28.51,85.22,85.22,0,0,1,26.9-19.84,77.8,77.8,0,0,1,33.6-7.32,76.27,76.27,0,0,1,34.34,7.69,83.26,83.26,0,0,1,26.53,20.58,97.56,97.56,0,0,1,17.11,28.77,91.14,91.14,0,0,1-.24,66.08,92.67,92.67,0,0,1-17.73,28.52,83.79,83.79,0,0,1-26.91,19.71A78.74,78.74,0,0,1,1390.27,1705.57Zm-56-89.27a73.92,73.92,0,0,0,4,24,66.83,66.83,0,0,0,11.28,20.71,53,53,0,0,0,17.73,14.26,51.42,51.42,0,0,0,23.31,5.2,50.53,50.53,0,0,0,23.81-5.45,52,52,0,0,0,17.48-14.75,69.41,69.41,0,0,0,10.78-20.83,75.31,75.31,0,0,0-.12-47.12,64,64,0,0,0-11.28-20.58,54.9,54.9,0,0,0-17.73-14.26,54,54,0,0,0-46.74.25,53.88,53.88,0,0,0-17.61,14.63,68.7,68.7,0,0,0-11,20.58A72.38,72.38,0,0,0,1334.23,1616.3Z"/><path class="cls-1" d="M1503.59,1704.33V1528.27h27.77v151.51h94.48v24.55Z"/><path class="cls-1" d="M1716.35,1705.57q-21.07,0-35.58-7.19a61.36,61.36,0,0,1-23.31-19.59,85,85,0,0,1-12.9-28.27,131.92,131.92,0,0,1-4.09-33v-89.27h27.77v89.27a109,109,0,0,0,2.48,23.43,65.09,65.09,0,0,0,7.94,20.21,39.66,39.66,0,0,0,14.75,14.14q9.3,5.21,22.94,5.2,13.88,0,23.18-5.33a39.29,39.29,0,0,0,14.63-14.38,68.73,68.73,0,0,0,7.81-20.21,105.54,105.54,0,0,0,2.48-23.06v-89.27h28v89.27a129.5,129.5,0,0,1-4.34,34.1,81.46,81.46,0,0,1-13.39,28,63,63,0,0,1-23.43,19Q1736.93,1705.57,1716.35,1705.57Z"/><path class="cls-1" d="M1958.61,1552.82h-58.52v151.51h-28V1552.82H1813.3v-24.55h145.31Z"/><path class="cls-1" d="M1982.17,1704.33V1528.27h27.77v176.06Z"/><path class="cls-1" d="M2122.76,1705.57q-19.1,0-34.47-7.44a82.61,82.61,0,0,1-26.53-20.21,93.92,93.92,0,0,1-17.23-28.76,91.61,91.61,0,0,1-6.08-32.86,89.05,89.05,0,0,1,6.45-33.6,94.31,94.31,0,0,1,17.85-28.51,85.22,85.22,0,0,1,26.9-19.84,77.8,77.8,0,0,1,33.6-7.32,76.34,76.34,0,0,1,34.35,7.69,83.37,83.37,0,0,1,26.53,20.58,97.77,97.77,0,0,1,17.11,28.77,91.21,91.21,0,0,1-.25,66.08,92.48,92.48,0,0,1-17.73,28.52,83.64,83.64,0,0,1-26.9,19.71A78.81,78.81,0,0,1,2122.76,1705.57Zm-56-89.27a74.18,74.18,0,0,0,4,24,66.85,66.85,0,0,0,11.29,20.71,52.81,52.81,0,0,0,17.73,14.26,51.39,51.39,0,0,0,23.31,5.2,50.49,50.49,0,0,0,23.8-5.45,52,52,0,0,0,17.48-14.75,69.43,69.43,0,0,0,10.79-20.83,75.22,75.22,0,0,0-.13-47.12,64,64,0,0,0-11.28-20.58,54.9,54.9,0,0,0-17.73-14.26,50.06,50.06,0,0,0-22.93-5.2,50.63,50.63,0,0,0-23.81,5.45,54,54,0,0,0-17.6,14.63,68.5,68.5,0,0,0-11,20.58A72.65,72.65,0,0,0,2066.72,1616.3Z"/><path class="cls-1" d="M2263.85,1579.85v124.48h-27.77V1528.27h22.81l99.68,127.21v-127h28v175.81h-24.3Z"/><path class="cls-1" d="M2530.41,1569.69a38.08,38.08,0,0,0-7.19-5.83,69.59,69.59,0,0,0-11.16-5.83,85.76,85.76,0,0,0-13.88-4.46,67.34,67.34,0,0,0-15.38-1.74q-17.36,0-25.79,6.43t-8.43,17.79q0,8.42,4.71,13.23t14.39,8q9.66,3.21,24.3,6.92a178,178,0,0,1,31,10q13.14,5.82,20.09,15.45t6.94,25.46q0,13.35-5,23a41.72,41.72,0,0,1-13.89,15.7,62.83,62.83,0,0,1-20.58,8.9,105.68,105.68,0,0,1-25,2.84,127.15,127.15,0,0,1-26.16-2.73,118.94,118.94,0,0,1-24.8-8.06,107.41,107.41,0,0,1-21.69-13l12.64-23.8a54.7,54.7,0,0,0,9.3,7.07,101.72,101.72,0,0,0,14.13,7.31,111.86,111.86,0,0,0,17.61,5.83,80.94,80.94,0,0,0,19.47,2.35q16.6,0,25.41-5.79t8.8-16.64q0-8.89-5.7-14.22t-16.61-9q-10.92-3.7-26-7.42a173.16,173.16,0,0,1-29-10.26q-11.65-5.57-17.48-14.34t-5.83-22.38q0-17.31,8.43-29.3a51.62,51.62,0,0,1,22.94-18.06,84,84,0,0,1,32.61-6.06,94.63,94.63,0,0,1,22.56,2.61,101.1,101.1,0,0,1,20,7.07,103.75,103.75,0,0,1,17,10.16Z"/><path class="cls-2" d="M948.71,1298.65v166.2l-99.08,57.2a42.44,42.44,0,1,1-23.55-40.8l75.52-43.6V1296.76a43.87,43.87,0,0,0-21.92-38h0a43.86,43.86,0,0,0-43.85,0L450,1481.56v105a132.52,132.52,0,0,0,66.26,114.77h0v-166.2l99.08-57.2a42.44,42.44,0,1,1,23.55,40.8l-75.52,43.6v140.88a43.87,43.87,0,0,0,21.92,38h0a43.86,43.86,0,0,0,43.85,0L1015,1518.44v-105a132.52,132.52,0,0,0-66.26-114.77Z"/><path class="cls-3" d="M654.33,1218.94,450,1336.91v90.25l360.65-208.22h0A156.34,156.34,0,0,0,654.33,1218.94Z"/><path class="cls-4" d="M810.65,1781.06l204.32-118v-90.25L654.32,1781.06h0A156.36,156.36,0,0,0,810.65,1781.06Z"/><path class="cls-5" d="M663,1490.2a10.86,10.86,0,1,0-5.44,1.51A10.92,10.92,0,0,0,663,1490.2Z"/><path class="cls-6" d="M802,1509.8a10.87,10.87,0,1,0,5.44-1.5A10.92,10.92,0,0,0,802,1509.8Z"/></svg>